<svg xmlns="http://www.w3.org/2000/svg" xmlns:xlink="http://www.w3.org/1999/xlink" width="350" zoomAndPan="magnify" viewBox="0 0 262.5 112.499997" height="150" preserveAspectRatio="xMidYMid meet" version="1.0"><defs><g/><clipPath id="8849f61529"><path d="M 146.269531 17.820312 L 260.515625 17.820312 L 260.515625 98.460938 L 146.269531 98.460938 Z M 146.269531 17.820312 " clip-rule="nonzero"/></clipPath><clipPath id="a70d45545d"><path d="M 146.269531 46.191406 L 146.269531 70.1875 C 146.269531 85.859375 158.976562 98.5625 174.644531 98.5625 L 232.332031 98.5625 C 248.003906 98.5625 260.707031 85.859375 260.707031 70.1875 L 260.707031 46.191406 C 260.707031 30.523438 248.003906 17.820312 232.332031 17.820312 L 174.644531 17.820312 C 158.976562 17.820312 146.269531 30.523438 146.269531 46.191406 Z M 146.269531 46.191406 " clip-rule="nonzero"/></clipPath></defs><g clip-path="url(#8849f61529)"><g clip-path="url(#a70d45545d)"><path fill="#ff3131" d="M 266.683594 63.726562 L 266.683594 67.511719 L 247.601562 67.511719 C 247.160156 67.464844 246.746094 67.550781 246.363281 67.773438 C 245.980469 68 245.699219 68.316406 245.527344 68.726562 C 245.246094 69.390625 244.890625 70.011719 244.457031 70.585938 C 244.242188 70.800781 243.597656 71.660156 242.882812 71.730469 C 242.167969 71.800781 241.3125 70.585938 240.667969 69.441406 C 240.023438 68.300781 238.667969 65.871094 237.453125 63.582031 C 237.09375 64.441406 236.808594 65.011719 236.523438 65.582031 C 235.238281 68.515625 233.878906 71.445312 232.59375 74.445312 C 232.09375 75.445312 231.59375 76.375 230.304688 76.234375 C 229.988281 76.226562 229.703125 76.132812 229.449219 75.945312 C 229.164062 75.789062 229 75.550781 228.949219 75.230469 C 224.730469 64.296875 223.515625 60.367188 223.515625 60.367188 C 223.515625 60.367188 222.65625 57.9375 221.941406 56.078125 C 221.730469 57.292969 221.515625 58.292969 221.441406 58.722656 C 218.871094 72.085938 215.4375 93.457031 215.082031 95.53125 L 214.867188 96.53125 C 214.871094 96.804688 214.8125 97.070312 214.703125 97.320312 C 214.589844 97.574219 214.433594 97.792969 214.230469 97.976562 C 214.023438 98.160156 213.789062 98.296875 213.527344 98.378906 C 213.265625 98.464844 212.996094 98.492188 212.722656 98.460938 C 211.507812 98.390625 211.007812 97.53125 210.9375 96.386719 L 209.648438 85.382812 C 208.433594 73.945312 206.648438 57.9375 206.578125 57.792969 L 204.003906 34.566406 C 203.433594 37.496094 203.003906 39.855469 202.789062 41.210938 C 198.859375 64.65625 197 76.375 196.855469 77.089844 C 196.714844 77.804688 196.785156 78.304688 196.5 78.589844 C 196.214844 78.878906 195.140625 79.734375 194.640625 79.59375 C 194.242188 79.488281 193.894531 79.296875 193.589844 79.015625 C 193.285156 78.738281 193.066406 78.40625 192.925781 78.019531 C 191.996094 74.445312 191.496094 70.945312 191.496094 70.945312 C 191.496094 70.945312 191.496094 70.371094 187.421875 52.074219 C 187.136719 53.148438 186.992188 53.863281 186.851562 54.503906 L 184.492188 65.296875 C 184.136719 67.15625 183.707031 67.511719 181.777344 67.511719 L 124.601562 67.511719 C 123.171875 69.714844 121.53125 71.738281 119.667969 73.589844 C 115.527344 77.703125 110.976562 81.300781 106.015625 84.378906 C 105.859375 84.519531 105.683594 84.628906 105.484375 84.703125 C 105.289062 84.78125 105.085938 84.816406 104.875 84.816406 C 104.664062 84.816406 104.457031 84.78125 104.261719 84.703125 C 104.066406 84.628906 103.886719 84.519531 103.730469 84.378906 C 97.871094 80.59375 92.367188 76.375 87.792969 71.015625 C 86.886719 69.871094 86.027344 68.726562 85.21875 67.585938 L 35.402344 67.585938 C 34.988281 67.523438 34.597656 67.601562 34.238281 67.816406 C 33.875 68.03125 33.621094 68.335938 33.472656 68.726562 C 33.109375 69.421875 32.707031 70.089844 32.257812 70.730469 C 31.332031 72.160156 29.613281 72.160156 28.828125 70.585938 C 28.042969 69.015625 27.328125 67.441406 26.613281 65.871094 L 25.46875 63.652344 C 25.46875 63.652344 21.539062 71.585938 20.464844 74.589844 C 20.242188 75.25 19.835938 75.777344 19.25 76.160156 C 18.929688 76.289062 18.597656 76.335938 18.25 76.304688 C 17.914062 76.296875 17.605469 76.203125 17.320312 76.019531 C 16.78125 75.566406 16.449219 74.996094 16.320312 74.304688 C 15.175781 69.015625 13.246094 63.867188 11.746094 58.652344 C 11.53125 57.792969 11.03125 56.363281 10.460938 54.648438 C 10.144531 55.207031 9.859375 55.777344 9.601562 56.363281 C 9.101562 57.507812 6.957031 62.4375 5.601562 65.941406 C 5.378906 66.53125 5 66.980469 4.457031 67.300781 C 4.148438 67.480469 3.816406 67.574219 3.457031 67.585938 L -11.339844 67.585938 L -11.339844 63.796875 L -1.832031 63.796875 C 2.382812 63.796875 2.3125 63.796875 3.957031 59.9375 L 8.746094 48.359375 C 9.175781 47.289062 9.675781 46.5 10.890625 46.574219 C 12.105469 46.644531 12.535156 47.574219 12.890625 48.644531 C 14.605469 54.71875 16.464844 60.796875 18.25 66.871094 L 18.75 68.585938 L 23.398438 58.652344 C 23.621094 58.050781 24.003906 57.574219 24.539062 57.222656 L 25.398438 57.078125 C 26.46875 57.007812 26.96875 57.722656 27.398438 58.578125 C 27.828125 59.4375 29.113281 62.152344 29.902344 63.941406 L 30.757812 65.871094 C 30.917969 65.234375 31.25 64.710938 31.757812 64.296875 C 32.585938 63.832031 33.464844 63.667969 34.402344 63.796875 L 83.21875 63.796875 C 82.847656 62.894531 82.5625 61.964844 82.359375 61.007812 C 82.121094 59.828125 82.066406 58.640625 82.191406 57.441406 C 82.320312 56.242188 82.621094 55.089844 83.101562 53.984375 C 83.578125 52.882812 84.214844 51.871094 85 50.960938 C 85.789062 50.050781 86.695312 49.277344 87.722656 48.644531 C 88.765625 48.007812 89.882812 47.542969 91.070312 47.25 C 92.257812 46.957031 93.460938 46.847656 94.679688 46.925781 C 95.902344 47 97.082031 47.257812 98.226562 47.699219 C 99.367188 48.140625 100.414062 48.742188 101.371094 49.503906 C 102.585938 50.433594 103.730469 51.648438 104.660156 52.503906 C 106.875 50.859375 108.875 49.003906 111.164062 47.929688 C 115.59375 46 119.953125 46.714844 123.671875 49.929688 C 127.386719 53.148438 128.386719 57.148438 127.246094 61.796875 L 126.601562 63.796875 L 179.132812 63.796875 C 180.5625 63.796875 181.0625 63.296875 181.347656 61.9375 C 182.707031 55.363281 184.136719 48.714844 185.636719 42.140625 C 185.65625 41.5 185.894531 40.949219 186.351562 40.496094 C 186.898438 40.101562 187.492188 40.003906 188.136719 40.210938 C 188.871094 40.570312 189.347656 41.140625 189.566406 41.925781 C 190.210938 43.929688 192.28125 53.148438 194.785156 65.796875 C 195.070312 63.867188 195.425781 61.9375 195.785156 60.007812 L 202.21875 20.558594 L 202.433594 19.414062 C 202.472656 19.199219 202.550781 19 202.664062 18.8125 C 202.777344 18.625 202.917969 18.460938 203.085938 18.324219 C 203.257812 18.1875 203.445312 18.082031 203.652344 18.011719 C 203.859375 17.941406 204.070312 17.910156 204.289062 17.914062 C 204.523438 17.882812 204.753906 17.898438 204.980469 17.964844 C 205.207031 18.027344 205.410156 18.136719 205.59375 18.285156 C 205.773438 18.433594 205.921875 18.609375 206.03125 18.820312 C 206.136719 19.027344 206.203125 19.25 206.21875 19.484375 C 206.503906 21.628906 206.792969 23.773438 207.003906 25.917969 C 208.007812 34.707031 208.933594 43.570312 209.863281 52.363281 L 213.367188 82.238281 C 219.011719 51.21875 219.085938 50.503906 219.226562 49.003906 C 219.261719 48.863281 219.289062 48.71875 219.296875 48.574219 C 219.441406 47.429688 219.941406 46.644531 221.230469 46.574219 C 222.515625 46.5 222.945312 47.214844 223.230469 48.214844 L 228.589844 63.152344 L 230.664062 69.085938 L 233.734375 62.511719 C 235.953125 57.863281 236.667969 57.078125 237.453125 57.078125 C 238.238281 57.078125 238.667969 57.148438 239.382812 58.4375 C 240.097656 59.722656 241.597656 62.9375 242.882812 65.582031 C 243.671875 63.582031 245.171875 63.726562 246.601562 63.726562 Z M 266.683594 63.726562 " fill-opacity="1" fill-rule="nonzero"/></g></g><g fill="#ff3131" fill-opacity="1"><g transform="translate(4.327001, 99.439488)"><g><path d="M 43.890625 -15.71875 C 43.890625 -12.03125 42.898438 -9.144531 40.921875 -7.0625 C 38.941406 -4.976562 36.207031 -3.9375 32.71875 -3.9375 C 32.164062 -3.9375 31.753906 -3.957031 31.484375 -4 L 31.484375 -11.421875 L 32.0625 -11.421875 C 34.65625 -11.421875 35.953125 -12.851562 35.953125 -15.71875 C 35.953125 -17.632812 35.253906 -19.21875 33.859375 -20.46875 C 32.472656 -21.726562 30.503906 -22.4375 27.953125 -22.59375 L 27.953125 0 L 20 0 L 20 -0.0625 L 19.953125 0 L 2.171875 -12.296875 L 2.171875 -20.1875 C 5.390625 -22.769531 8.351562 -24.851562 11.0625 -26.4375 C 13.769531 -28.03125 16.75 -29.144531 20 -29.78125 L 20 -32.890625 L -1.171875 -32.890625 L -1.171875 -39.484375 L 47.078125 -39.484375 L 47.078125 -32.890625 L 27.953125 -32.890625 L 27.953125 -29.78125 C 32.148438 -29.65625 35.851562 -28.328125 39.0625 -25.796875 C 42.28125 -23.265625 43.890625 -19.90625 43.890625 -15.71875 Z M 20 -8.59375 L 20 -22.359375 C 16.59375 -21.222656 13.082031 -19.164062 9.46875 -16.1875 Z M 20 -8.59375 "/></g></g></g><g fill="#ff3131" fill-opacity="1"><g transform="translate(52.102277, 99.439488)"><g><path d="M 40.015625 -32.890625 L 33.25 -32.890625 L 33.25 0 L 25.015625 0 L 25.015625 -5 C 25.015625 -7.863281 24.273438 -10.15625 22.796875 -11.875 C 21.328125 -13.601562 19.28125 -14.46875 16.65625 -14.46875 C 15.007812 -14.46875 13.722656 -14.125 12.796875 -13.4375 C 11.878906 -12.757812 11.421875 -11.8125 11.421875 -10.59375 C 11.421875 -9.375 11.84375 -8.46875 12.6875 -7.875 C 13.53125 -7.289062 14.597656 -7 15.890625 -7 C 16.597656 -7 17.34375 -7.039062 18.125 -7.125 L 18.125 -0.359375 C 17.019531 -0.117188 15.707031 0 14.1875 0 C 10.925781 0 8.242188 -0.921875 6.140625 -2.765625 C 4.046875 -4.609375 3 -7.238281 3 -10.65625 C 3 -13.238281 3.675781 -15.398438 5.03125 -17.140625 C 6.382812 -18.890625 8.21875 -20.140625 10.53125 -20.890625 C 10.101562 -22.972656 9.226562 -24.460938 7.90625 -25.359375 C 6.59375 -26.265625 4.757812 -26.71875 2.40625 -26.71875 L 2.40625 -32.890625 L -1.171875 -32.890625 L -1.171875 -39.484375 L 40.015625 -39.484375 Z M 25.015625 -17 L 25.015625 -32.890625 L 9.890625 -32.890625 C 12.242188 -31.835938 14.132812 -30.304688 15.5625 -28.296875 C 17 -26.296875 17.910156 -24.003906 18.296875 -21.421875 C 21.359375 -20.910156 23.597656 -19.4375 25.015625 -17 Z M 25.015625 -17 "/></g></g></g><g fill="#ff3131" fill-opacity="1"><g transform="translate(91.640497, 99.439488)"><g><path d="M 17.296875 0.40625 C 16.671875 0.53125 15.925781 0.59375 15.0625 0.59375 C 12.90625 0.59375 11.019531 0.132812 9.40625 -0.78125 C 7.800781 -1.707031 6.519531 -2.972656 5.5625 -4.578125 C 4.601562 -6.191406 3.882812 -7.976562 3.40625 -9.9375 C 2.9375 -11.90625 2.679688 -14.023438 2.640625 -16.296875 C 2.640625 -24.492188 3.816406 -30.023438 6.171875 -32.890625 L -1.171875 -32.890625 L -1.171875 -39.484375 L 19.359375 -39.484375 L 19.359375 -32.890625 L 17.421875 -32.890625 C 15.960938 -32.890625 14.753906 -32.457031 13.796875 -31.59375 C 12.835938 -30.726562 12.140625 -29.453125 11.703125 -27.765625 C 11.273438 -26.085938 10.984375 -24.382812 10.828125 -22.65625 C 10.671875 -20.925781 10.59375 -18.804688 10.59375 -16.296875 C 10.59375 -9.867188 12.378906 -6.65625 15.953125 -6.65625 C 16.578125 -6.65625 17.023438 -6.671875 17.296875 -6.703125 Z M 17.296875 0.40625 "/></g></g></g><g fill="#ff3131" fill-opacity="1"><g transform="translate(109.820877, 99.439488)"><g><path d="M 32.953125 -32.890625 L 27.953125 -32.890625 L 27.953125 0 L 20 0 L 20 -0.0625 L 19.953125 0 L 2.171875 -12.296875 L 2.171875 -20.1875 C 7.859375 -24.8125 13.800781 -27.96875 20 -29.65625 L 20 -32.890625 L -1.171875 -32.890625 L -1.171875 -39.484375 L 32.953125 -39.484375 Z M 8.59375 -4.359375 C 9.457031 -3.492188 9.890625 -2.429688 9.890625 -1.171875 C 9.890625 0.078125 9.457031 1.132812 8.59375 2 C 7.726562 2.863281 6.664062 3.296875 5.40625 3.296875 C 4.15625 3.296875 3.097656 2.863281 2.234375 2 C 1.367188 1.132812 0.9375 0.078125 0.9375 -1.171875 C 0.9375 -2.429688 1.367188 -3.492188 2.234375 -4.359375 C 3.097656 -5.222656 4.15625 -5.65625 5.40625 -5.65625 C 6.664062 -5.65625 7.726562 -5.222656 8.59375 -4.359375 Z M 20 -8.59375 L 20 -21.828125 C 15.96875 -20.222656 12.5 -18.320312 9.59375 -16.125 Z M 20 -8.59375 "/></g></g></g><g fill="#ff3131" fill-opacity="1"><g transform="translate(143.475486, 99.439488)"><g><path d="M 38.125 -17.1875 C 38.125 -12.320312 36.613281 -8.238281 33.59375 -4.9375 C 30.570312 -1.644531 26.375 0 21 0 C 15.3125 0 10.679688 -1.851562 7.109375 -5.5625 C 3.546875 -9.269531 1.765625 -14.5 1.765625 -21.25 C 1.765625 -23.164062 1.84375 -24.832031 2 -26.25 L 10.125 -26.25 C 9.96875 -24.832031 9.890625 -23.28125 9.890625 -21.59375 C 9.890625 -16.84375 10.90625 -13.234375 12.9375 -10.765625 C 14.976562 -8.296875 17.664062 -7.0625 21 -7.0625 C 24.101562 -7.0625 26.457031 -7.953125 28.0625 -9.734375 C 29.675781 -11.523438 30.484375 -13.910156 30.484375 -16.890625 C 28.398438 -15.910156 26.300781 -15.421875 24.1875 -15.421875 C 21.007812 -15.421875 18.585938 -16.28125 16.921875 -18 C 15.253906 -19.726562 14.421875 -22.222656 14.421875 -25.484375 L 14.421875 -32.890625 L -1.171875 -32.890625 L -1.171875 -39.484375 L 41.078125 -39.484375 L 41.078125 -32.890625 L 22.65625 -32.890625 L 22.65625 -25.59375 C 22.65625 -23.519531 23.710938 -22.484375 25.828125 -22.484375 C 28.023438 -22.484375 31.554688 -23.695312 36.421875 -26.125 C 37.554688 -23.34375 38.125 -20.363281 38.125 -17.1875 Z M 38.125 -17.1875 "/></g></g></g><g fill="#ff3131" fill-opacity="1"><g transform="translate(0.331862, 50.261972)"><g><path d="M 18.421875 0.4375 C 17.753906 0.5625 17.003906 0.625 16.171875 0.625 C 11.953125 0.625 8.691406 -0.96875 6.390625 -4.15625 C 4.085938 -7.351562 2.894531 -11.753906 2.8125 -17.359375 C 2.769531 -20.273438 2.882812 -22.914062 3.15625 -25.28125 C 3.4375 -27.644531 3.929688 -29.890625 4.640625 -32.015625 C 5.347656 -34.148438 6.285156 -35.9375 7.453125 -37.375 C 8.617188 -38.8125 10.140625 -39.945312 12.015625 -40.78125 C 13.898438 -41.625 16.078125 -42.046875 18.546875 -42.046875 L 20.609375 -42.046875 L 20.609375 -35.03125 L 18.796875 -35.03125 C 17.421875 -35.03125 16.25 -34.671875 15.28125 -33.953125 C 14.320312 -33.242188 13.59375 -32.378906 13.09375 -31.359375 C 12.59375 -30.335938 12.195312 -28.96875 11.90625 -27.25 C 11.613281 -25.539062 11.4375 -23.984375 11.375 -22.578125 C 11.3125 -21.179688 11.28125 -19.441406 11.28125 -17.359375 C 11.28125 -10.503906 13.179688 -7.078125 16.984375 -7.078125 C 17.648438 -7.078125 18.128906 -7.097656 18.421875 -7.140625 Z M 18.421875 0.4375 "/></g></g></g><g fill="#ff3131" fill-opacity="1"><g transform="translate(19.691071, 50.261972)"><g><path d="M 35.09375 -35.03125 L 29.765625 -35.03125 L 29.765625 0 L 21.296875 0 L 21.296875 -0.0625 L 21.234375 0 L 2.3125 -13.09375 L 2.3125 -21.484375 C 8.375 -26.421875 14.703125 -29.785156 21.296875 -31.578125 L 21.296875 -35.03125 L -1.25 -35.03125 L -1.25 -42.046875 L 35.09375 -42.046875 Z M 9.140625 -4.640625 C 10.066406 -3.722656 10.53125 -2.59375 10.53125 -1.25 C 10.53125 0.0820312 10.066406 1.207031 9.140625 2.125 C 8.222656 3.050781 7.097656 3.515625 5.765625 3.515625 C 4.429688 3.515625 3.300781 3.050781 2.375 2.125 C 1.457031 1.207031 1 0.0820312 1 -1.25 C 1 -2.59375 1.457031 -3.722656 2.375 -4.640625 C 3.300781 -5.554688 4.429688 -6.015625 5.765625 -6.015625 C 7.097656 -6.015625 8.222656 -5.554688 9.140625 -4.640625 Z M 21.296875 -9.140625 L 21.296875 -23.25 C 16.992188 -21.53125 13.300781 -19.503906 10.21875 -17.171875 Z M 21.296875 -9.140625 "/></g></g></g><g fill="#ff3131" fill-opacity="1"><g transform="translate(55.527875, 50.261972)"><g><path d="M 40.59375 -18.296875 C 40.59375 -13.117188 38.984375 -8.773438 35.765625 -5.265625 C 32.554688 -1.753906 28.09375 0 22.375 0 C 16.3125 0 11.378906 -1.972656 7.578125 -5.921875 C 3.773438 -9.867188 1.875 -15.4375 1.875 -22.625 C 1.875 -24.664062 1.957031 -26.4375 2.125 -27.9375 L 10.78125 -27.9375 C 10.613281 -26.4375 10.53125 -24.789062 10.53125 -23 C 10.53125 -17.9375 11.613281 -14.085938 13.78125 -11.453125 C 15.957031 -8.828125 18.820312 -7.515625 22.375 -7.515625 C 25.664062 -7.515625 28.164062 -8.460938 29.875 -10.359375 C 31.59375 -12.265625 32.453125 -14.804688 32.453125 -17.984375 C 30.242188 -16.941406 28.007812 -16.421875 25.75 -16.421875 C 22.363281 -16.421875 19.78125 -17.335938 18 -19.171875 C 16.226562 -21.003906 15.34375 -23.65625 15.34375 -27.125 L 15.34375 -35.03125 L -1.25 -35.03125 L -1.25 -42.046875 L 43.734375 -42.046875 L 43.734375 -35.03125 L 24.125 -35.03125 L 24.125 -27.25 C 24.125 -25.039062 25.25 -23.9375 27.5 -23.9375 C 29.84375 -23.9375 33.601562 -25.226562 38.78125 -27.8125 C 39.988281 -24.851562 40.59375 -21.679688 40.59375 -18.296875 Z M 40.59375 -18.296875 "/></g></g></g></svg>